<?xml version="1.0" encoding="utf-8"?>
<!-- Generator: Adobe Illustrator 25.2.1, SVG Export Plug-In . SVG Version: 6.00 Build 0)  -->
<svg version="1.1" id="图层_1" xmlns="http://www.w3.org/2000/svg" xmlns:xlink="http://www.w3.org/1999/xlink" x="0px" y="0px"
	 width="1860px" height="560px" viewBox="0 0 1860 560" style="enable-background:new 0 0 1860 560;" xml:space="preserve">
<style type="text/css">
	.st0{fill-rule:evenodd;clip-rule:evenodd;fill:#FFFFFF;}
</style>
<g>
	<path class="st0" d="M642.1,238.2h-30.3v55.6H597v-55.6h-35.9c-0.9,7.3-0.9,12.8-2.8,18.2c-0.9,5.5-2.8,10-5.5,14.6
		c-2.8,4.6-5.5,9.1-9.2,13.7c-3.7,4.6-8.3,9.1-13.8,13.7l-11-10.9c4.6-4.6,9.2-8.2,12.9-11.8c3.7-3.6,6.4-7.3,8.3-10.9
		c1.8-3.6,3.7-7.3,4.6-11.8c0.9-4.6,1.8-9.1,1.8-14.6h-32.2v-14.6h33.1v-0.9v-34.6h-25.7v-14.6h113.1v13.7h-23v36.5h30.3V238.2
		L642.1,238.2L642.1,238.2z M596.1,223.6v-36.5h-34.9v33.7v2.7H596.1L596.1,223.6L596.1,223.6z"/>
	<path class="st0" d="M759.1,256c8.3,10.1,18.5,19.4,31.4,27.7l-9.2,13.8c-6.5-4.6-12-9.2-16.6-13.8c-5.5-4.6-10.2-10.1-13.8-14.7
		c-3.7,5.5-9.2,10.1-13.8,14.7c-5.5,4.6-11.1,9.2-17.5,14.7l-8.3-10.1c-0.9,0.9-2.8,1.8-5.5,2.8c-2.8,0.9-4.6,0.9-7.4,0.9l-8.3,0.9
		l-4.6-14.7l7.4-0.9c3.7,0,5.5-0.9,7.4-2.8c1.8-1.8,1.8-2.8,1.8-6.5c0-0.9,0-1.8,0-3.7s0-3.7,0-6.5c0-2.8,0-4.6,0-7.4
		c0-2.8,0-5.5,0-7.4c0-2.8,0-4.6,0-6.5c0-1.8,0-2.8,0-3.7h-16.6c0,8.3-0.9,14.7-1.8,20.3c-0.9,5.5-1.8,11.1-3.7,15.7
		c-1.8,4.6-3.7,9.2-5.5,13.8c-2.8,4.6-5.5,9.2-8.3,14.7l-12-8.3c3.7-5.5,6.5-10.1,8.3-14.7c1.8-4.6,3.7-9.2,5.5-14.7
		c1.8-5.5,2.8-12,2.8-18.4c0.9-7.4,0.9-15.7,0.9-25.8c0-1.8,0-3.7,0-6.5c0-2.8,0-4.6,0-7.4h-9.2V185H688c-0.9-2.8-1.8-6.5-2.8-10.1
		c-0.9-3.7-1.8-6.5-2.8-8.3l12.9-1.8c0,0.9,0.9,2.8,0.9,4.6c0.9,1.8,0.9,3.7,1.8,5.5c0.9,1.8,0.9,3.7,1.8,5.5
		c0.9,1.8,0.9,3.7,1.8,5.5H724v14.8h-36c0,1.8,0,2.8,0,4.6c0,1.8,0,2.8,0,4.6s0,2.8,0,3.7c0,0.9,0,1.8,0,2.8v0.9h27.7
		c1.8-3.7,4.6-7.4,6.5-11.1c1.8-4.6,4.6-9.2,6.5-13.8c1.8-4.6,3.7-9.2,5.5-13.8c1.8-4.6,2.8-9.2,3.7-13.8l14.8,2.8
		c-0.9,3.7-1.8,6.5-2.8,10.1c-0.9,3.7-2.8,5.5-4.6,9.2h41.5v14.7h-11.1c-0.9,11.1-3.7,21.2-5.5,30.4
		C767.4,240.3,763.7,248.6,759.1,256L759.1,256z M713.8,281.8c11.1-8.3,20.3-16.6,27.7-24.9c-2.8-5.5-5.5-10.1-8.3-15.7
		c-2.8-5.5-3.7-11.1-5.5-16.6l-3.7,5.5l-6.5-7.4c0,1.8,0,4.6,0,7.4c0,2.8,0,6.5,0,10.1c0,3.7,0,7.4,0,11.1c0,3.7,0,7.4,0,10.1
		c0,2.8,0,5.5,0,8.3c0,2.8,0,3.7,0,4.6C714.8,276.2,714.8,279,713.8,281.8L713.8,281.8z M739.7,201.6l-1.8,3.7
		c0.9,7.4,2.8,13.8,4.6,19.4c1.8,6.5,4.6,12,7.4,17.5c2.8-5.5,5.5-12,7.4-19.4c1.8-6.5,3.7-14.7,4.6-23h-22.2V201.6L739.7,201.6z"/>
	<path class="st0" d="M890,248v29.2c0,2.7,0,5.5-0.9,7.3c-0.9,1.8-1.8,3.6-2.7,4.6c-0.9,0.9-2.7,1.8-5.5,2.7
		c-1.8,0.9-4.6,0.9-8.2,0.9l-9.1,0.9l-3.7-13.7l8.2-0.9c1.8,0,3.7,0,4.6-0.9c0.9-0.9,0.9,0,1.8,0c0.9-0.9,0.9-0.9,0.9-2.7
		c0-1.8,0-1.8,0-3.6V248h-32v-53.8h26.5c0.9-1.8,0.9-3.6,1.8-5.5c0.9-1.8,0.9-3.6,1.8-5.5h-40.2V218c0,10,0,18.2-0.9,25.5
		c-0.9,7.3-1.8,13.7-3.7,20.1c-1.8,6.4-3.7,11.8-5.5,16.4c-2.7,5.5-5.5,10-8.2,15.5l-12.8-8.2c2.7-5.5,5.5-10,8.2-14.6
		c1.8-4.6,3.7-9.1,5.5-13.7c0.9-4.6,1.8-10.9,2.7-16.4c0.9-6.4,0.9-13.7,0.9-21.9v-50.1h111.5v13.7h-51.2l9.1,1.8
		c0,0.9-0.9,2.7-0.9,4.6c-0.9,1.8-0.9,2.7-1.8,4.6H922v53.8h-32V248L890,248z M865.3,259.9c-1.8,2.7-3.7,4.6-5.5,7.3
		c-1.8,2.7-4.6,5.5-7.3,8.2c-2.7,2.7-4.6,5.5-7.3,8.2c-2.7,2.7-5.5,5.5-7.3,7.3l-9.1-10.9c4.6-4.6,9.1-9.1,13.7-14.6
		c4.6-5.5,8.2-10,11.9-14.6L865.3,259.9L865.3,259.9L865.3,259.9z M857.1,207v9.1h51.2V207H857.1L857.1,207L857.1,207z M857.1,237.1
		h51.2V228h-51.2V237.1L857.1,237.1L857.1,237.1z M905.5,252.6c1.8,1.8,4.6,3.6,6.4,5.5c2.7,1.8,4.6,4.6,7.3,6.4
		c2.7,2.7,4.6,4.6,7.3,7.3c2.7,2.7,4.6,4.6,6.4,7.3l-9.1,10.9c-1.8-1.8-3.7-4.6-6.4-7.3c-2.7-2.7-5.5-5.5-7.3-8.2
		c-2.7-2.7-5.5-5.5-7.3-7.3c-2.7-2.7-4.6-4.6-6.4-6.4L905.5,252.6L905.5,252.6L905.5,252.6z"/>
	<path class="st0" d="M1075.4,236.8h-54.9v36.5c0,3.7,0,6.4-0.9,8.2c-0.9,1.8-1.8,3.7-2.7,5.5c-1.8,0.9-3.7,2.7-6.4,2.7
		c-2.7,0-5.5,0.9-10.1,1.8l-12.8,0.9l-4.6-14.6l12.8-0.9c1.8,0,3.7,0,4.6-0.9c0.9,0,1.8-0.9,2.7-1.8c0.9-0.9,0.9-1.8,0.9-2.7
		c0-0.9,0-2.7,0-4.6V235h-54.9v-11.9h54.9v-11.9l36.6-24.6H961V172h105.3v14.6l-46.7,31v5.5h54.9v13.7H1075.4L1075.4,236.8z"/>
	<path class="st0" d="M1220.8,238.2h-30v55.6h-14.5v-55.6h-35.4c-0.9,7.3-0.9,12.8-2.7,18.2c-0.9,5.5-2.7,10-5.5,14.6
		c-2.7,4.6-5.5,9.1-9.1,13.7c-3.6,4.6-8.2,9.1-13.6,13.7l-10.9-10.9c4.5-4.6,9.1-8.2,12.7-11.8c3.6-3.6,6.4-7.3,8.2-10.9
		c1.8-3.6,3.6-7.3,4.5-11.8c0.9-4.6,1.8-9.1,1.8-14.6h-31.8v-14.6h32.7v-0.9v-34.6h-25.4v-14.6h111.8v13.7h-22.7v36.5h30V238.2
		L1220.8,238.2L1220.8,238.2z M1176.3,223.6v-36.5h-34.5v33.7v2.7H1176.3L1176.3,223.6L1176.3,223.6z"/>
	<path class="st0" d="M1262.3,230c-1.8-1.8-3.7-3.7-5.5-5.5c-1.8-1.8-4.6-3.7-6.4-5.5c-1.8-1.8-4.6-3.7-6.4-5.5
		c-1.8-1.8-3.7-2.7-5.5-4.6l7.3-10.1c1.8,0.9,3.7,2.8,5.5,3.7c1.8,1.8,4.6,3.7,6.4,5.5c1.8,1.8,4.6,3.7,6.4,5.5
		c1.8,1.8,3.7,3.7,5.5,4.6L1262.3,230L1262.3,230L1262.3,230z M1266.9,241c0,0.9-0.9,2.8-0.9,5.5c-0.9,2.7-1.8,6.4-2.8,10.1
		c-0.9,3.7-1.8,7.3-2.8,11.9c-0.9,4.6-1.8,8.3-2.8,11.9c-0.9,3.7-1.8,6.4-2.8,9.2c-0.9,2.8-0.9,4.6-0.9,5.5l-12.9-3.7
		c0-0.9,0.9-2.7,1.8-5.5c0.9-2.7,1.8-5.5,2.8-9.2c0.9-3.7,1.8-7.3,2.8-11c0.9-3.7,1.8-7.3,2.8-11c0.9-3.7,1.8-6.4,1.8-9.2
		c0.9-2.7,0.9-4.6,0.9-6.4L1266.9,241L1266.9,241L1266.9,241z M1266.9,197.9c-0.9-1.8-2.8-2.7-4.6-4.6c-1.8-1.8-3.7-3.7-6.4-5.5
		c-1.8-1.8-4.6-3.7-6.4-5.5c-1.8-1.8-3.7-3.7-5.5-4.6l7.3-10.1c1.8,0.9,3.7,2.7,5.5,3.7c1.8,1.8,4.6,2.8,6.4,4.6
		c1.8,1.8,4.6,3.7,6.4,4.6c1.8,0.9,3.7,2.8,5.5,4.6L1266.9,197.9L1266.9,197.9L1266.9,197.9z M1334.9,251.1v26.6
		c0,2.8,0,5.5-0.9,7.3c-0.9,1.8-1.8,3.7-2.8,4.6c-0.9,0.9-2.8,1.8-4.6,2.8c-1.8,0.9-4.6,0.9-7.3,0.9l-7.3,0.9l-4.6-12.8l6.4-0.9
		c1.8,0,2.8,0,3.7-0.9c0.9-0.9,1.8-0.9,1.8-0.9c0.9-0.9,0.9-1.8,0.9-2.8s0-2.8,0-4.6v-20.2h-23.9V197h19.3c0.9-1.8,0.9-4.6,1.8-6.4
		c0.9-1.8,0.9-3.7,1.8-6.4H1289V219c0,9.2,0,16.5-0.9,23.8c-0.9,6.4-1.8,12.8-2.8,19.3c-0.9,5.5-2.8,11.9-4.6,17.4
		c-1.8,5.5-4.6,11-7.3,17.4l-12.9-6.4c2.8-6.4,5.5-11.9,7.3-16.5c1.8-4.6,3.7-10.1,4.6-15.6c0.9-5.5,1.8-11,2.8-17.4
		c0-6.4,0.9-12.8,0.9-21.1v-48.6h89.1V185h-37.6l5.5,0.9c-0.9,1.8-0.9,3.7-1.8,5.5c-0.9,1.8-0.9,3.7-1.8,5.5h26.6v54.1H1334.9
		L1334.9,251.1L1334.9,251.1z M1312.8,262.1c-0.9,2.7-2.8,5.5-4.6,8.3c-1.8,2.7-3.7,5.5-5.5,8.3c-1.8,2.7-3.7,5.5-5.5,8.3
		c-1.8,2.8-3.7,4.6-5.5,7.3l-10.1-8.3c3.7-4.6,7.3-9.2,11-14.7c3.7-4.6,6.4-10.1,9.2-14.7L1312.8,262.1L1312.8,262.1L1312.8,262.1z
		 M1311,208.9V219h33.1v-10.1H1311L1311,208.9L1311,208.9z M1311,239.1h33.1v-10.1H1311V239.1L1311,239.1L1311,239.1z M1350.5,255.6
		c0.9,1.8,2.8,3.7,4.6,5.5c1.8,1.8,3.7,4.6,5.5,7.3c1.8,2.8,3.7,5.5,5.5,7.3c1.8,2.8,2.8,4.6,4.6,6.4l-10.1,8.3
		c-0.9-1.8-2.8-4.6-4.6-7.3c-1.8-2.7-3.7-5.5-5.5-8.3c-1.8-2.8-3.7-5.5-5.5-8.3c-1.8-2.8-3.7-4.6-4.6-6.4L1350.5,255.6L1350.5,255.6
		L1350.5,255.6z"/>
	<path class="st0" d="M1454,269.6v11.9h49.6v11h-112.9v-11h49.6v-11.9h-25.7v-9.2c-7.3,6.4-16.5,11.9-26.6,16.5l-5.5-12.8
		c7.3-3.7,13.8-6.4,20.2-11c5.5-3.7,11-8.2,14.7-11.9h-31.2v-11h23.9v-42.1h-19.3v-11h19.3v-11l13.8,0.9v10.1h49.6v-11l13.8,0.9
		v10.1h19.3v11h-19.3v42.1h23.9v11h-31.2c4.6,4.6,9.2,9.2,15.6,12.8c6.4,3.7,11.9,6.4,19.3,9.2l-5.5,12.8
		c-5.5-2.7-10.1-5.5-14.7-7.3c-4.6-2.7-8.3-5.5-12.9-8.2v9.2H1454L1454,269.6L1454,269.6z M1440.3,258.6v-11.9l13.8,0.9v11h23
		c-2.8-2.7-5.5-5.5-8.3-8.2c-2.8-2.7-4.6-5.5-7.3-9.2h-30.3c-3.7,5.5-9.2,11.9-15.6,17.4H1440.3L1440.3,258.6L1440.3,258.6z
		 M1422.8,188.1v6.4h49.6v-6.4H1422.8L1422.8,188.1L1422.8,188.1z M1422.8,212.8h49.6v-7.3h-49.6V212.8L1422.8,212.8L1422.8,212.8z
		 M1422.8,230.2h49.6V222h-49.6V230.2L1422.8,230.2L1422.8,230.2z"/>
	<path class="st0" d="M1600.1,278.1h52.6v13h-120v-13h52.6v-31.5h-28.6c0.9,0.9,2.8,2.8,3.7,4.6c1.8,1.9,2.8,3.7,4.6,5.6
		c1.8,1.9,3.7,3.7,4.6,5.6c1.8,1.9,2.8,3.7,3.7,5.6l-9.2,10.2c-0.9-1.9-2.8-3.7-4.6-5.6c-1.8-1.9-3.7-4.6-5.5-6.5
		c-1.8-1.9-3.7-4.6-5.5-6.5c-1.8-1.9-2.8-3.7-4.6-4.6l8.3-8.3h-14.8v-13.9h45.2v-14.8H1553v-9.3c-7.4,4.6-14.8,8.3-23.1,12
		l-6.5-13.9c13.9-5.6,25.9-12,35.1-19.4c10.2-7.4,17.5-15.7,24-24.1h12c6.5,9.3,14.8,16.7,24,24.1c10.2,7.4,21.2,13,34.2,18.5
		l-5.5,13.9c-3.7-1.9-8.3-3.7-12-5.6c-3.7-1.9-7.4-3.7-11.1-6.5v10.2h-29.5v14.8h45.2v13.9H1625l8.3,6.5c-0.9,1.9-2.8,3.7-4.6,6.5
		c-1.8,2.8-2.8,4.6-4.6,6.5c-1.8,1.9-3.7,4.6-4.6,6.5c-0.9,1.9-3.7,3.7-4.6,5.6l-10.2-9.3c0.9-1.9,2.8-2.8,4.6-4.6
		c1.8-1.9,2.8-3.7,4.6-5.6c1.8-1.9,2.8-3.7,4.6-5.6c1.8-1.9,2.8-3.7,3.7-5.6h-26.8v30.6H1600.1L1600.1,278.1z M1593.6,177.1
		c-3.7,4.6-8.3,10.2-12.9,14.8c-4.6,4.6-11.1,9.3-17.5,13.9h61.9c-6.5-3.7-12-8.3-17.5-13C1601.9,188.2,1597.3,182.7,1593.6,177.1
		L1593.6,177.1z"/>
	<path class="st0" d="M1744.3,163.2c6.4,9.2,14.7,17.4,24.8,25.6c10.1,8.2,22,15.6,34.9,22l-6.4,13.7c-7.3-3.7-14.7-8.2-21.1-12.8
		v9.2h-76.2v-9.2c-7.3,4.6-13.8,8.2-22,12.8l-6.4-13.7c12.9-6.4,24.8-13.7,34.9-22c10.1-8.2,18.4-16.5,24.8-25.6H1744.3
		L1744.3,163.2L1744.3,163.2z M1679.1,236.5h118.4v12.8h-61.5c-3.7,5.5-8.3,10.1-11.9,14.6c-3.7,4.6-8.3,8.2-11,11l49.6-1.8
		c-1.8-2.7-4.6-5.5-6.4-7.3c-1.8-2.7-3.7-4.6-5.5-5.5l11-9.2c1.8,1.8,4.6,4.6,6.4,7.3c2.8,2.7,5.5,5.5,8.3,9.2
		c2.8,2.7,5.5,6.4,8.3,9.2c2.8,3.7,5.5,6.4,7.3,9.2l-10.1,11c-0.9-1.8-1.8-2.7-3.7-4.6c-0.9-1.8-2.8-3.7-4.6-5.5
		c-2.8,0-6.4,0-10.1,0c-4.6,0-9.2,0-13.8,0.9c-4.6,0-10.1,0.9-15.6,0.9c-5.5,0-11,0.9-15.6,0.9c-5.5,0-10.1,0.9-14.7,0.9
		c-4.6,0-9.2,0.9-11.9,0.9l-2.8-13.7c1.8-0.9,3.7-1.8,4.6-2.7c0.9-0.9,1.8-0.9,2.8-1.8c1.8-1.8,3.7-2.7,5.5-4.6
		c1.8-1.8,3.7-3.7,5.5-5.5c1.8-1.8,3.7-4.6,5.5-6.4c1.8-1.8,3.7-4.6,5.5-6.4H1681v-13.7H1679.1L1679.1,236.5z M1770.9,208.1
		c-6.4-4.6-12.9-10.1-18.4-15.6c-5.5-5.5-10.1-10.1-13.8-15.6c-3.7,5.5-8.3,11-13.8,15.6c-5.5,4.6-11.9,10.1-18.4,14.6h64.3V208.1
		L1770.9,208.1z"/>
	<path class="st0" d="M548.1,407.1c-5.5,0-10.2-0.9-13.9-1.9c-3.7-0.9-7.4-2.8-10.2-6.5c-2.8-2.8-4.6-6.5-6.5-12
		c-1.8-4.6-1.8-11.1-1.8-18.5c0-7.4,0.9-13.9,1.8-18.5c1.8-4.6,3.7-9.3,6.5-12c2.8-2.8,6.5-4.6,10.2-6.5c3.7-0.9,9.2-1.9,13.9-1.9
		c5.5,0,10.2,0.9,13.8,1.9c3.7,0.9,7.4,2.8,10.2,6.5c2.8,2.8,4.6,6.5,6.5,12c1.8,5.6,1.8,11.1,1.8,18.5c0,7.4-0.9,13.9-1.8,18.5
		c-0.9,4.6-3.7,9.3-6.5,12c-2.8,2.8-6.5,4.6-10.2,6.5C558.2,406.1,553.6,407.1,548.1,407.1L548.1,407.1z M548.1,395
		c3.7,0,6.5-0.9,9.2-1.9c2.8-0.9,4.6-2.8,5.5-4.6c0.9-1.9,1.8-4.6,2.8-8.3c0.9-3.7,0.9-7.4,0.9-12c0-4.6,0-8.3-0.9-12
		c-0.9-3.7-1.8-6.5-2.8-8.3c-0.9-1.9-2.8-3.7-5.5-4.6c-1.8-0.9-5.5-0.9-9.2-0.9c-3.7,0-6.5,0.9-9.2,1.9c-2.8,0.9-4.6,2.8-5.5,4.6
		c-0.9,1.9-1.8,4.6-2.8,8.3c-0.9,3.7-0.9,7.4-0.9,12c0,4.6,0,9.3,0.9,12c0.9,3.7,1.8,6.5,2.8,8.3c0.9,1.9,2.8,3.7,5.5,4.6
		C541.6,395,544.4,395,548.1,395L548.1,395z"/>
	<path class="st0" d="M596.6,332.1h24.1c5.6,0,10.2,0.9,13.9,0.9c3.7,0.9,6.5,2.8,9.3,4.6c1.9,1.9,3.7,4.6,4.6,7.4
		c0.9,2.8,0.9,6.5,0.9,11.2c0,4.6-0.9,8.4-1.9,12.1c-0.9,3.7-2.8,5.6-4.6,7.4c-1.9,1.9-5.6,3.7-9.3,4.6c-3.7,0.9-8.4,0.9-13,0.9
		h-9.3v24.2h-13.9v-73.4H596.6L596.6,332.1z M617.9,370.3c2.8,0,5.6,0,7.4-0.9c1.9,0,3.7-0.9,4.6-1.9s1.9-2.8,2.8-4.6
		c0.9-1.9,0.9-3.7,0.9-6.5c0-4.6-0.9-8.4-3.7-10.2c-2.8-1.9-6.5-2.8-12.1-2.8h-8.3v27.9h8.3V370.3L617.9,370.3z"/>
	<polygon class="st0" points="708.2,393.7 708.2,405.6 662.7,405.6 662.7,332.1 705.5,332.1 705.5,344.1 676.3,344.1 676.3,361.5 
		703.6,361.5 703.6,373.5 676.3,373.5 676.3,393.7 708.2,393.7 708.2,393.7 	"/>
	<polygon class="st0" points="721.4,332.1 742.8,332.1 769.7,387.2 770.6,387.2 770.6,332.1 784.6,332.1 784.6,405.6 765.1,405.6 
		735.3,345.9 735.3,345.9 735.3,404.7 721.4,404.7 721.4,332.1 721.4,332.1 	"/>
	<path class="st0" d="M844.3,386.3H814l-7.3,19.3h-14.7l27.5-73.4h18.4l27.5,73.4h-14.7L844.3,386.3L844.3,386.3L844.3,386.3z
		 M840.6,375.3L830.5,345h-0.9l-11.9,30.3H840.6L840.6,375.3L840.6,375.3z"/>
	<polygon class="st0" points="922.7,344.1 902.4,344.1 902.4,405.6 888.6,405.6 888.6,344.1 868.3,344.1 868.3,332.1 922.7,332.1 
		922.7,344.1 922.7,344.1 	"/>
	<path class="st0" d="M964.5,407.1c-5.4,0-9.9-0.9-13.5-1.9c-3.6-0.9-7.2-2.8-9.9-6.5c-2.7-2.8-4.5-6.5-6.3-12
		c-1.8-4.6-1.8-11.1-1.8-18.5c0-7.4,0.9-13.9,1.8-18.5c1.8-4.6,3.6-9.3,6.3-12c2.7-2.8,6.3-4.6,9.9-6.5c3.6-0.9,9-1.9,13.5-1.9
		c5.4,0,9.9,0.9,13.5,1.9c3.6,0.9,7.2,2.8,9.9,6.5c2.7,2.8,4.5,6.5,6.3,12c1.8,5.6,1.8,11.1,1.8,18.5c0,7.4-0.9,13.9-1.8,18.5
		c-0.9,4.6-3.6,9.3-6.3,12c-2.7,2.8-6.3,4.6-9.9,6.5C974.4,406.1,969.9,407.1,964.5,407.1L964.5,407.1z M964.5,395
		c3.6,0,6.3-0.9,9-1.9c2.7-0.9,4.5-2.8,5.4-4.6c0.9-1.9,1.8-4.6,2.7-8.3c0.9-3.7,0.9-7.4,0.9-12c0-4.6,0-8.3-0.9-12
		c-0.9-3.7-1.8-6.5-2.7-8.3c-0.9-1.9-2.7-3.7-5.4-4.6c-2.7-0.9-5.4-1.9-9-1.9c-3.6,0-6.3,0.9-9,1.9c-2.7,0.9-4.5,2.8-5.4,4.6
		c-0.9,1.9-1.8,4.6-2.7,8.3c-0.9,3.7-0.9,7.4-0.9,12c0,4.6,0,9.3,0.9,12c0.9,3.7,1.8,6.5,2.7,8.3c0.9,1.9,2.7,3.7,5.4,4.6
		C957.3,395,960.9,395,964.5,395L964.5,395z"/>
	<polygon class="st0" points="1012.3,332.1 1034,332.1 1048.5,375.3 1049.4,375.3 1063.9,332.1 1085.7,332.1 1085.7,405.6 
		1072.1,405.6 1072.1,345.9 1071.2,345.9 1055.8,390.9 1042.2,390.9 1026.8,345.9 1025.9,345.9 1025.9,405.6 1012.3,405.6 
		1012.3,332.1 1012.3,332.1 	"/>
	<polygon class="st0" points="1145.7,344.1 1145.7,363.4 1172.9,363.4 1172.9,375.3 1145.7,375.3 1145.7,405.6 1131.2,405.6 
		1131.2,332.1 1173.8,332.1 1173.8,344.1 1145.7,344.1 1145.7,344.1 	"/>
	<path class="st0" d="M1218.6,407.1c-5.4,0-9.9-0.9-13.5-1.9c-3.6-0.9-7.2-2.8-9.9-6.5c-2.7-2.8-4.5-6.5-6.3-12
		c-1.8-4.6-1.8-11.1-1.8-18.5c0-7.4,0.9-13.9,1.8-18.5c1.8-4.6,3.6-9.3,6.3-12c2.7-2.8,6.3-4.6,9.9-6.5c3.6-0.9,9-1.9,13.5-1.9
		c5.4,0,9.9,0.9,13.5,1.9c3.6,0.9,7.2,2.8,9.9,6.5c2.7,2.8,4.5,6.5,6.3,12c1.8,5.6,1.8,11.1,1.8,18.5c0,7.4-0.9,13.9-1.8,18.5
		c-0.9,4.6-3.6,9.3-6.3,12c-2.7,2.8-6.3,4.6-9.9,6.5C1228.6,406.1,1223.2,407.1,1218.6,407.1L1218.6,407.1z M1218.6,395
		c3.6,0,6.3-0.9,9-1.9c2.7-0.9,4.5-2.8,5.4-4.6c0.9-1.9,1.8-4.6,2.7-8.3c0.9-3.7,0.9-7.4,0.9-12c0-4.6,0-8.3-0.9-12
		c-0.9-3.7-1.8-6.5-2.7-8.3c-0.9-1.9-2.7-3.7-5.4-4.6c-2.7-0.9-5.4-1.9-9-1.9c-3.6,0-6.3,0.9-9,1.9c-2.7,0.9-4.5,2.8-5.4,4.6
		c-0.9,1.9-1.8,4.6-2.7,8.3c-0.9,3.7-0.9,7.4-0.9,12c0,4.6,0,9.3,0.9,12c0.9,3.7,1.8,6.5,2.7,8.3c0.9,1.9,2.7,3.7,5.4,4.6
		C1211.4,395,1215,395,1218.6,395L1218.6,395z"/>
	<path class="st0" d="M1296,407.1c-4.6,0-9.3,0-13-0.9c-3.7-0.9-6.5-1.8-9.3-4.6c-2.8-1.8-4.6-4.6-5.6-7.3
		c-0.9-2.7-1.9-7.3-1.9-11.9v-49.3h13.9v46.6c0,2.7,0,4.6,0.9,6.4c0.9,1.8,0.9,3.7,2.8,4.6c0.9,0.9,2.8,1.8,4.6,2.7
		c1.9,0.9,4.6,0.9,7.4,0.9s5.6,0,8.3-0.9c1.9-0.9,3.7-1.8,4.6-2.7c0.9-0.9,1.9-2.7,2.8-4.6c0-1.8,0.9-3.7,0.9-6.4v-47.5h13.9v49.3
		c0,9.1-2.8,15.5-7.4,19.2C1313.6,405.2,1306.2,407.1,1296,407.1L1296,407.1z"/>
	<polygon class="st0" points="1342.2,332.1 1363.3,332.1 1389.8,387.2 1390.7,387.2 1390.7,332.1 1404.5,332.1 1404.5,405.6 
		1385.2,405.6 1355.9,346.8 1355,346.8 1355,405.6 1341.3,405.6 1341.3,332.1 1342.2,332.1 	"/>
	<path class="st0" d="M1446.2,332.1c5.6,0,10.2,0.9,14.8,1.8c4.6,0.9,8.3,2.8,11.1,5.5c2.8,2.8,5.6,6.4,7.4,11
		c1.9,4.6,2.8,11,2.8,18.4c0,7.3-0.9,12.9-2.8,17.4c-1.9,4.6-4.6,8.3-7.4,11c-2.8,2.8-6.5,4.6-11.1,6.4c-4.6,0.9-9.3,1.8-14.8,1.8
		h-24.1v-73.4H1446.2L1446.2,332.1L1446.2,332.1z M1445.2,393.7c3.7,0,6.5,0,9.3-0.9c2.8-0.9,5.6-1.8,7.4-3.7
		c1.9-1.8,3.7-4.6,4.6-7.3c0.9-2.8,1.9-7.3,1.9-11.9c0-5.5-0.9-9.2-1.9-12.9c-0.9-3.7-2.8-5.5-4.6-7.3c-1.9-1.8-4.6-2.8-7.4-3.7
		c-2.8-0.9-5.6-0.9-9.3-0.9h-9.3v49.6h9.3V393.7L1445.2,393.7z"/>
	<path class="st0" d="M1540.5,386.3h-30.3l-7.3,19.3h-14.7l27.5-73.4h18.4l27.5,73.4h-14.7L1540.5,386.3L1540.5,386.3L1540.5,386.3z
		 M1536.8,375.3l-10.1-30.3h-1.8l-11,30.3H1536.8L1536.8,375.3L1536.8,375.3z"/>
	<polygon class="st0" points="1618.9,344.1 1598.7,344.1 1598.7,405.6 1584.8,405.6 1584.8,344.1 1564.6,344.1 1564.6,332.1 
		1618.9,332.1 1618.9,344.1 1618.9,344.1 	"/>
	<polygon class="st0" points="1629.2,332.1 1642.4,332.1 1642.4,405.6 1629.2,405.6 1629.2,332.1 	"/>
	<path class="st0" d="M1691.6,407.1c-5.4,0-9.9-0.9-13.5-1.9c-3.6-0.9-7.2-2.8-9.9-6.5c-2.7-2.8-4.5-6.5-6.3-12
		c-1.8-4.6-1.8-11.1-1.8-18.5c0-7.4,0.9-13.9,1.8-18.5c1.8-4.6,3.6-9.3,6.3-12c2.7-2.8,6.3-4.6,9.9-6.5c3.6-0.9,9-1.9,13.5-1.9
		c5.4,0,9.9,0.9,13.5,1.9c3.6,0.9,7.2,2.8,9.9,6.5c2.7,2.8,4.5,6.5,6.3,12c1.8,5.6,1.8,11.1,1.8,18.5c0,7.4-0.9,13.9-1.8,18.5
		c-0.9,4.6-3.6,9.3-6.3,12c-2.7,2.8-6.3,4.6-9.9,6.5C1701.6,406.1,1697,407.1,1691.6,407.1L1691.6,407.1z M1691.6,395
		c3.6,0,6.3-0.9,9-1.9c2.7-0.9,4.5-2.8,5.4-4.6c0.9-1.9,1.8-4.6,2.7-8.3c0.9-3.7,0.9-7.4,0.9-12c0-4.6,0-8.3-0.9-12
		c-0.9-3.7-1.8-6.5-2.7-8.3c-0.9-1.9-2.7-3.7-5.4-4.6c-2.7-0.9-5.4-1.9-9-1.9c-3.6,0-6.3,0.9-9,1.9c-2.7,0.9-4.5,2.8-5.4,4.6
		c-0.9,1.9-1.8,4.6-2.7,8.3c-0.9,3.7-0.9,7.4-0.9,12c0,4.6,0,9.3,0.9,12c0.9,3.7,1.8,6.5,2.7,8.3c0.9,1.9,2.7,3.7,5.4,4.6
		C1684.4,395,1688,395,1691.6,395L1691.6,395z"/>
	<polygon class="st0" points="1738.8,332.1 1759.9,332.1 1786.4,387.2 1787.3,387.2 1787.3,332.1 1801.1,332.1 1801.1,405.6 
		1781.8,405.6 1752.5,346.8 1751.6,346.8 1751.6,405.6 1737.9,405.6 1737.9,332.1 1738.8,332.1 	"/>
	<path class="st0" d="M255.6,293.8v143.5h2.8c36.8-3.7,70.8-20.2,95.7-46l7.4-8.3L309,292.9h-53.4V293.8L255.6,293.8L255.6,293.8z
		 M174.7,293.8l-52.4,90.1l7.4,7.4c24.8,24.8,58.9,41.4,95.7,46h2.8V293.8H174.7L174.7,293.8L174.7,293.8L174.7,293.8z M241.8,177
		l-51.5,88.3h102.1L241.8,177L241.8,177L241.8,177L241.8,177z M241.8,121.8l10.1,18.4l0,0l126,218.9l2.8-3.7
		c12-22.1,19.3-47.8,19.3-75.4c0-81.9-62.6-149-141.7-157.3L241.8,121.8L241.8,121.8L241.8,121.8z M240.9,121.8h-15.6
		c-80,8.3-141.7,75.4-141.7,158.2c0,27.6,7.4,53.4,19.3,75.4l2.8,3.7l125.1-219.9l0,0L240.9,121.8L240.9,121.8L240.9,121.8
		L240.9,121.8z M241.8,94.2c102.1,0,185.8,82.8,185.8,185.8c0,102.1-82.8,185.8-185.8,185.8S56,382.1,56,280
		C56,177,138.8,94.2,241.8,94.2L241.8,94.2L241.8,94.2L241.8,94.2z"/>
</g>
</svg>
